<svg xmlns="http://www.w3.org/2000/svg" xmlns:xlink="http://www.w3.org/1999/xlink" version="1.1" x="0px" y="0px" viewBox="0 0 100 125" style="enable-background:new 0 0 100 100;" xml:space="preserve"><path d="M56.7,37.5L35.9,73.6c4.2,5.3,10.7,8.4,17.5,8.4c12.3,0,22.4-10,22.4-22.4C75.7,48.4,67.4,39.1,56.7,37.5z"/><path d="M31.8,56.3c2.3,0,4.2-1.9,4.2-4.2s-1.9-4.2-4.2-4.2s-4.2,1.9-4.2,4.2S29.5,56.3,31.8,56.3z M31.8,49.5  c1.4,0,2.6,1.2,2.6,2.6s-1.2,2.6-2.6,2.6s-2.6-1.2-2.6-2.6S30.4,49.5,31.8,49.5z"/><path d="M70.3,10.2c-8.8,12.6-16.7,25.8-24.4,39c-3.6,6.3-7.2,12.7-10.7,19.1c-0.7-1.1-1.3-2.2-1.8-3.4c-0.7-1.7-1.2-3.5-1.4-5.5  c-0.5,3.9,0.1,7.9,1.7,11.6h0c-3.3,6.2-6.5,12.5-9.5,18.8C36.1,70.8,59,29.9,70.4,10.3L70.3,10.2L70.3,10.2z"/></svg>